<svg width="20" height="20" viewBox="0 0 20 20" fill="none" xmlns="http://www.w3.org/2000/svg">
<path d="M12.7386 4.91455H7.26213C7.00276 4.91455 6.75402 5.01758 6.57061 5.20099C6.38721 5.38439 6.28418 5.63313 6.28418 5.8925V14.4985C6.28414 14.6032 6.31216 14.7061 6.3653 14.7963C6.41845 14.8866 6.4948 14.961 6.58642 15.0118C6.67803 15.0626 6.78158 15.088 6.8863 15.0852C6.99102 15.0825 7.0931 15.0518 7.18194 14.9962L9.9999 13.2359L12.8188 14.9962C12.9077 15.0518 13.0098 15.0825 13.1145 15.0852C13.2192 15.088 13.3227 15.0626 13.4144 15.0118C13.506 14.961 13.5823 14.8866 13.6355 14.7963C13.6886 14.7061 13.7166 14.6032 13.7166 14.4985V5.8925C13.7166 5.63313 13.6136 5.38439 13.4302 5.20099C13.2468 5.01758 12.998 4.91455 12.7386 4.91455Z" fill="#C7EA1A"/>
<path fill-rule="evenodd" clip-rule="evenodd" d="M16 1.5H4C2.61929 1.5 1.5 2.61929 1.5 4V16C1.5 17.3807 2.61929 18.5 4 18.5H16C17.3807 18.5 18.5 17.3807 18.5 16V4C18.5 2.61929 17.3807 1.5 16 1.5ZM4 0C1.79086 0 0 1.79086 0 4V16C0 18.2091 1.79086 20 4 20H16C18.2091 20 20 18.2091 20 16V4C20 1.79086 18.2091 0 16 0H4Z" fill="#C7EA1A"/>
</svg>
