<svg width="5" height="5" viewBox="0 0 5 5" fill="none" xmlns="http://www.w3.org/2000/svg">
    <path fill-rule="evenodd" clip-rule="evenodd"
        d="M4.49969 0.813598C4.28771 0.601623 3.94403 0.601623 3.73206 0.813598L2.65662 1.88904L1.5811 0.813522C1.36912 0.601547 1.02544 0.601547 0.813462 0.813522C0.601487 1.0255 0.601487 1.36918 0.813462 1.58115L1.88899 2.65667L0.813279 3.73238C0.601303 3.94435 0.601303 4.28803 0.813278 4.50001C1.02526 4.71198 1.36894 4.71198 1.58091 4.50001L2.65662 3.4243L3.73224 4.49993C3.94422 4.71191 4.2879 4.71191 4.49987 4.49993C4.71185 4.28796 4.71185 3.94428 4.49987 3.7323L3.42425 2.65667L4.49969 1.58123C4.71167 1.36925 4.71167 1.02557 4.49969 0.813598Z"
        fill="#C7EA1A" />
</svg>