<svg width="10" height="10" viewBox="0 0 10 10" fill="none" xmlns="http://www.w3.org/2000/svg">
<path fill-rule="evenodd" clip-rule="evenodd" d="M6.82547 2.58727H3.17456C2.85021 2.58727 2.58728 2.8502 2.58728 3.17455V6.82545C2.58728 7.14979 2.85021 7.41273 3.17456 7.41273H6.82547C7.14981 7.41273 7.41275 7.14979 7.41275 6.82545V3.17455C7.41275 2.8502 7.14981 2.58727 6.82547 2.58727ZM3.17456 2C2.52586 2 2 2.52586 2 3.17455V6.82545C2 7.47414 2.52586 8 3.17456 8H6.82547C7.47416 8 8 7.47414 8 6.82545V3.17455C8 2.52586 7.47416 2 6.82547 2H3.17456Z" fill="#C7EA1A"/>
</svg>
