<svg width="20" height="20" viewBox="0 0 20 20" fill="none" xmlns="http://www.w3.org/2000/svg">
    <rect width="20" height="20" rx="4" fill="#C7EA1A" fill-opacity="0.1" />
    <path fill-rule="evenodd" clip-rule="evenodd"
        d="M16 1.5H4C2.61929 1.5 1.5 2.61929 1.5 4V16C1.5 17.3807 2.61929 18.5 4 18.5H16C17.3807 18.5 18.5 17.3807 18.5 16V4C18.5 2.61929 17.3807 1.5 16 1.5ZM4 0C1.79086 0 0 1.79086 0 4V16C0 18.2091 1.79086 20 4 20H16C18.2091 20 20 18.2091 20 16V4C20 1.79086 18.2091 0 16 0H4Z"
        fill="#C7EA1A" />
    <path fill-rule="evenodd" clip-rule="evenodd"
        d="M10.0004 4C9.31035 4 8.75098 4.55937 8.75098 5.2494V8.75073H5.2494C4.55937 8.75073 4 9.31011 4 10.0001C4 10.6902 4.55937 11.2495 5.2494 11.2495H8.75098V14.7506C8.75098 15.4406 9.31035 16 10.0004 16C10.6904 16 11.2498 15.4406 11.2498 14.7506V11.2495H14.7506C15.4406 11.2495 16 10.6902 16 10.0001C16 9.31011 15.4406 8.75073 14.7506 8.75073H11.2498V5.2494C11.2498 4.55937 10.6904 4 10.0004 4Z"
        fill="#C7EA1A" />
</svg>