<svg width="20" height="20" viewBox="0 0 20 20" fill="none" xmlns="http://www.w3.org/2000/svg">
<path fill-rule="evenodd" clip-rule="evenodd" d="M16 1.5H4C2.61929 1.5 1.5 2.61929 1.5 4V16C1.5 17.3807 2.61929 18.5 4 18.5H16C17.3807 18.5 18.5 17.3807 18.5 16V4C18.5 2.61929 17.3807 1.5 16 1.5ZM4 0C1.79086 0 0 1.79086 0 4V16C0 18.2091 1.79086 20 4 20H16C18.2091 20 20 18.2091 20 16V4C20 1.79086 18.2091 0 16 0H4Z" fill="#C7EA1A"/>
<path d="M5.36681 14.6333C5.04827 14.6333 4.77549 14.5198 4.54846 14.2928C4.32143 14.0657 4.20811 13.7931 4.2085 13.475V6.52513C4.2085 6.2066 4.32201 5.93381 4.54904 5.70679C4.77607 5.47976 5.04866 5.36644 5.36681 5.36682H8.84174L10 6.52513H14.6333C14.9518 6.52513 15.2246 6.63865 15.4516 6.86567C15.6787 7.0927 15.792 7.36529 15.7916 7.68344V13.475C15.7916 13.7935 15.6781 14.0663 15.451 14.2933C15.224 14.5204 14.9514 14.6337 14.6333 14.6333H5.36681Z" fill="#C7EA1A"/>
</svg>
