<svg width="148" height="36" viewBox="0 0 148 36" fill="none" xmlns="http://www.w3.org/2000/svg">
    <rect width="148" height="35.5942" rx="4" fill="#C7EA1A" />
    <path fill-rule="evenodd" clip-rule="evenodd"
        d="M73.377 10C72.8247 10 72.377 10.4477 72.377 11V16.1736H67.2031C66.6508 16.1736 66.2031 16.6213 66.2031 17.1736V18.4208C66.2031 18.9731 66.6508 19.4208 67.2031 19.4208H72.377V24.5942C72.377 25.1465 72.8247 25.5942 73.377 25.5942H74.6242C75.1765 25.5942 75.6242 25.1465 75.6242 24.5942V19.4208H80.7974C81.3496 19.4208 81.7974 18.9731 81.7974 18.4208V17.1736C81.7974 16.6213 81.3496 16.1736 80.7974 16.1736H75.6242V11C75.6242 10.4477 75.1765 10 74.6242 10H73.377Z"
        fill="#1E1E1E" />
</svg>