<svg width="20" height="20" viewBox="0 0 20 20" fill="none" xmlns="http://www.w3.org/2000/svg">
<path d="M12.9474 4H7.05263C6.77346 4 6.50572 4.11143 6.30831 4.30978C6.1109 4.50814 6 4.77716 6 5.05767V14.3652C5.99996 14.4785 6.03011 14.5897 6.08732 14.6874C6.14453 14.785 6.2267 14.8655 6.32532 14.9204C6.42393 14.9753 6.53538 15.0027 6.6481 14.9998C6.76082 14.9968 6.8707 14.9636 6.96632 14.9035L9.99947 12.9997L13.0337 14.9035C13.1293 14.9636 13.2392 14.9968 13.3519 14.9998C13.4646 15.0027 13.5761 14.9753 13.6747 14.9204C13.7733 14.8655 13.8555 14.785 13.9127 14.6874C13.9699 14.5897 14 14.4785 14 14.3652V5.05767C14 4.77716 13.8891 4.50814 13.6917 4.30978C13.4943 4.11143 13.2265 4 12.9474 4Z" fill="#C7EA1A"/>
</svg>
